<?xml version="1.0" encoding="UTF-8"?>
<svg version="1.1" xmlns="http://www.w3.org/2000/svg" width="32" height="32" viewBox="0 0 495 499">
    <path d="M0 0 C163.35 0 326.7 0 495 0 C495 164.67 495 329.34 495 499 C331.65 499 168.3 499 0 499 C0 334.33 0 169.66 0 0 Z " fill="#FDFDFD" transform="translate(0,0)"/>
    <path d="M0 0 C4.1893707 0.63728582 7.42410794 2.97637775 10.9375 5.1875 C23.89481305 13.14622179 35.01474454 19.52005854 50.375 16 C51.04273438 15.835 51.71046875 15.67 52.3984375 15.5 C59.09787754 14.21241993 65.82775539 13.83725943 72.63671875 13.796875 C73.82850739 13.78669342 73.82850739 13.78669342 75.04437256 13.77630615 C77.59212225 13.75946492 80.13969839 13.75311962 82.6875 13.75 C83.55295441 13.74766357 84.41840881 13.74532715 85.31008911 13.74291992 C98.74830104 13.7292162 111.76908788 14.47696568 125 17 C125 17.66 125 18.32 125 19 C139.34302189 16.37044599 153.39191427 9.64833042 165.16015625 1.1015625 C167 0 167 0 170 0 C171.81948976 3.63897951 171.18470453 7.93159288 171.1875 11.9375 C171.19974609 12.85724609 171.21199219 13.77699219 171.22460938 14.72460938 C171.22654297 15.60826172 171.22847656 16.49191406 171.23046875 17.40234375 C171.23457764 18.21179443 171.23868652 19.02124512 171.24291992 19.85522461 C171 22 171 22 169 25 C168.61500109 26.65549531 168.27206865 28.3222433 168 30 C167.34 30 166.68 30 166 30 C165.87625 30.5775 165.7525 31.155 165.625 31.75 C165 34 165 34 163.875 35.875 C162.56770705 39.04985432 163.08990737 40.6629937 164 44 C164.76797695 45.76052478 165.56247888 47.50958467 166.375 49.25 C173.11611788 63.70357838 174.16072483 77.97801401 174.02734375 93.73046875 C174.02202133 94.97589447 174.01669891 96.22132019 174.01121521 97.50448608 C173.98806933 102.71683805 173.96452566 107.92710736 173.8527832 113.13842773 C172.72146907 129.44987829 172.72146907 129.44987829 178.74725342 143.88661194 C181.02346841 146.11122572 183.48137154 148.05863678 186 150 C187.93830886 152.29374379 189.57180086 154.72188006 191.1875 157.25 C191.79319824 158.18223389 191.79319824 158.18223389 192.41113281 159.13330078 C202.36009794 174.78472153 208.80609681 191.46603016 212.6875 209.5625 C212.97306763 210.87831055 212.97306763 210.87831055 213.2644043 212.22070312 C217.00341016 230.8097423 218.48641536 249.3708693 218.33618164 268.30615234 C218.31209511 271.55460563 218.31571912 274.80225832 218.32226562 278.05078125 C218.31670119 280.14844234 218.30959917 282.24610006 218.30078125 284.34375 C218.30169266 285.2989856 218.30260406 286.25422119 218.30354309 287.23840332 C218.24459708 292.82223796 217.57795399 297.63833301 216 303 C210.03545029 302.48513183 205.42090089 300.6721715 200.0625 298.0625 C199.23129639 297.66063477 198.40009277 297.25876953 197.54370117 296.84472656 C162.30242671 279.45773128 131.48455947 249.96532685 117 213 C115.82504203 209.44571872 114.80364951 205.85932887 113.8125 202.25 C113.55275391 201.33089844 113.29300781 200.41179687 113.02539062 199.46484375 C109.13552296 185.57389515 106.89072499 169.22373679 114 156 C115.22586081 153.8444901 116.49570601 151.98955012 118 150 C118.53625 149.21625 119.0725 148.4325 119.625 147.625 C120.07875 147.08875 120.5325 146.5525 121 146 C121.66 146 122.32 146 123 146 C123 145.34 123 144.68 123 144 C131.04095475 137.52018806 140.65067902 135.01978599 150.75 134.4375 C151.44738281 134.39431641 152.14476562 134.35113281 152.86328125 134.30664062 C154.57531922 134.20110404 156.28763561 134.1001009 158 134 C148.66842976 130.13866059 137.80611777 129.00814515 128.21875 132.8359375 C117.11843664 138.65969345 110.277989 146.23553025 106 158 C101.07763218 174.41399232 103.1883364 192.14594666 109 208 C109.28407715 208.8038916 109.5681543 209.6077832 109.86083984 210.43603516 C115.70106342 226.77916486 123.46358045 241.91933532 135 255 C135.69609375 255.804375 136.3921875 256.60875 137.109375 257.4375 C139.36618188 259.99841561 141.6697651 262.50577148 144 265 C144.79792969 265.86367188 145.59585938 266.72734375 146.41796875 267.6171875 C151.870118 273.30853845 157.63564133 278.25966034 163.875 283.0625 C164.60074219 283.62300049 165.32648438 284.18350098 166.07421875 284.76098633 C169.58477334 287.40652138 172.75468201 289.65981138 177 291 C177 291.66 177 292.32 177 293 C177.639375 293.226875 178.27875 293.45375 178.9375 293.6875 C181.45873832 294.76803071 183.64419926 295.93285979 186 297.3125 C189.76681884 299.45416957 193.56508935 301.05053328 197.625 302.5625 C207.26098901 306.19574176 207.26098901 306.19574176 211 309 C211.33 310.98 211.66 312.96 212 315 C218.93 315.33 225.86 315.66 233 316 C237.875 325.625 237.875 325.625 239 329 C239.80824219 329.01417969 240.61648438 329.02835937 241.44921875 329.04296875 C242.51785156 329.09066406 243.58648437 329.13835937 244.6875 329.1875 C246.27111328 329.23970703 246.27111328 329.23970703 247.88671875 329.29296875 C252.00130545 330.2273981 253.36315226 331.73574922 256 335 C257.41540293 337.43393798 258.6745812 339.78048261 259.875 342.3125 C260.21595703 343.01181641 260.55691406 343.71113281 260.90820312 344.43164062 C263.5428521 349.89157181 265.97256076 355.43438403 268.359375 361.00610352 C270.66318662 366.34469401 273.22685962 371.5185588 275.86791992 376.69677734 C279.1046503 383.0952016 282.03725376 389.62053527 284.94287109 396.17480469 C286.47327387 399.62428397 288.01425803 403.02793673 289.73046875 406.390625 C291.28581593 409.58746167 291.6100154 411.49241144 291 415 C288.29621005 417.77256018 286.62518649 418.9044797 282.76777172 419.49384212 C281.53650712 419.4910352 280.30524252 419.48822828 279.03666687 419.4853363 C278.34791892 419.48930973 277.65917098 419.49328315 276.94955188 419.49737698 C274.64784997 419.50594993 272.34727553 419.48615719 270.0456543 419.46655273 C268.39289192 419.46710161 266.74012929 419.46947714 265.08737183 419.47354126 C261.53072054 419.47871609 257.97437756 419.47164998 254.41776085 419.45528984 C248.79044439 419.43016881 243.1634322 419.43645651 237.53608704 419.44776917 C223.5573085 419.47096989 209.57861755 419.45256267 195.59985352 419.42626953 C184.73846327 419.40631224 173.87731632 419.39776834 163.01592571 419.42320591 C157.42562815 419.43500669 151.83602382 419.423401 146.24579847 419.3939532 C142.76218664 419.38066666 139.27884153 419.38813716 135.79523849 419.40123367 C134.18441086 419.4030851 132.57354651 419.39641939 130.96279716 419.38043022 C120.06683399 419.08564017 120.06683399 419.08564017 110.56608295 423.82954502 C105.17066865 427.86195564 95.44199899 426.48795555 89 426 C84.95433631 425.21258895 81.39947001 424.27380054 78.31190395 421.46349144 C75.1646946 419.47123136 72.92523676 419.62918786 69.21266174 419.63491821 C68.53081863 419.63179922 67.84897551 419.62868022 67.14647049 419.6254667 C64.86247976 419.6185243 62.57911634 419.63285368 60.29516602 419.64697266 C58.65738808 419.64614184 57.01961035 419.64392563 55.38183594 419.64042664 C51.8552263 419.63547598 48.32878291 419.63957677 44.80218697 419.65044022 C39.22620395 419.66678689 33.65043001 419.65834231 28.07444763 419.64559937 C13.22056467 419.61546358 -1.63328082 419.61694991 -16.48717886 419.63585222 C-26.24611891 419.64817966 -36.0048226 419.64634235 -45.76373535 419.61746442 C-51.3071698 419.60221431 -56.84996349 419.60973627 -62.39335811 419.63417459 C-65.8418798 419.6442382 -69.29010682 419.63356236 -72.73859406 419.61705971 C-74.33777177 419.61360509 -75.93699441 419.6187179 -77.53611183 419.63302803 C-79.72006349 419.65136193 -81.90178888 419.63898641 -84.0856781 419.61904907 C-85.30738929 419.62018015 -86.52910048 419.62131123 -87.78783321 419.62247658 C-91.92799338 418.82016683 -93.44308952 417.29185918 -96 414 C-96.09605834 408.22963844 -93.65240541 403.60329961 -91.125 398.5625 C-90.31069944 396.89540954 -89.49829459 395.22739216 -88.6875 393.55859375 C-88.254375 392.67026855 -87.82125 391.78194336 -87.375 390.86669922 C-84.38393867 384.63071872 -81.5640407 378.31373225 -78.71923828 372.01000977 C-78.27821777 371.03990967 -77.83719727 370.06980957 -77.3828125 369.0703125 C-76.99496582 368.21195801 -76.60711914 367.35360352 -76.20751953 366.46923828 C-74.94224697 363.88190171 -73.49466805 361.46032583 -72 359 C-71.40274602 357.57658854 -70.84064747 356.13797329 -70.3125 354.6875 C-68.4349829 349.88134618 -66.27432964 345.25280742 -64 340.625 C-63.50173706 339.5899231 -63.50173706 339.5899231 -62.9934082 338.53393555 C-59.47031774 331.45918199 -59.47031774 331.45918199 -56 329 C-52.765625 328.609375 -52.765625 328.609375 -49.25 328.75 C-48.07953125 328.78609375 -46.9090625 328.8221875 -45.703125 328.859375 C-44.81109375 328.90578125 -43.9190625 328.9521875 -43 329 C-42.87625 328.26265625 -42.7525 327.5253125 -42.625 326.765625 C-42.0305621 324.1352373 -41.23634259 322.13177763 -40 319.75 C-39.4740625 318.72132813 -39.4740625 318.72132813 -38.9375 317.671875 C-38 316 -38 316 -37 315 C-34.49137472 314.70863641 -32.00104878 314.47580259 -29.484375 314.28125 C-28.71756409 314.21844849 -27.95075317 314.15564697 -27.16070557 314.09094238 C-24.69079359 313.88970743 -22.22042653 313.69480583 -19.75 313.5 C-18.13017514 313.36889907 -16.51038299 313.23739326 -14.890625 313.10546875 C-2.98679891 312.1408661 -2.98679891 312.1408661 2.96679688 311.71875 C4.12759766 311.63625 5.28839844 311.55375 6.484375 311.46875 C7.98822754 311.36723633 7.98822754 311.36723633 9.52246094 311.26367188 C12.13014115 311.07553929 12.13014115 311.07553929 15 310 C17.12512306 309.86092971 19.25388109 309.77478235 21.3828125 309.71875 C22.63191406 309.68136719 23.88101563 309.64398438 25.16796875 309.60546875 C27.81379655 309.53494817 30.45962993 309.46463689 33.10546875 309.39453125 C34.35199219 309.35714844 35.59851563 309.31976563 36.8828125 309.28125 C38.03152832 309.25095703 39.18024414 309.22066406 40.36376953 309.18945312 C42.92361197 309.29458877 42.92361197 309.29458877 44 308 C46.16480797 307.9010706 48.33293785 307.870289 50.5 307.875 C51.6859375 307.87242187 52.871875 307.86984375 54.09375 307.8671875 C57 308 57 308 58 309 C61.19904988 309.83953267 61.19904988 309.83953267 65 309 C67.36415605 306.81443128 69.31300599 304.49935583 71.30078125 301.96875 C71.86152344 301.3190625 72.42226562 300.669375 73 300 C73.66 300 74.32 300 75 300 C74.73445312 299.33355469 74.46890625 298.66710937 74.1953125 297.98046875 C71.96752457 292.16708054 70.47778733 286.65721737 69.50390625 280.515625 C68.81209026 277.06190794 67.46362359 274.19336055 66 271 C66 270.01 66 269.02 66 268 C65.3090625 267.76925781 64.618125 267.53851563 63.90625 267.30078125 C40.69964483 256.91395394 19.66172082 228.02840389 10.84228516 204.97363281 C8.28498904 197.72961036 6.07550773 190.39483754 4 183 C3.65195313 181.77539062 3.30390625 180.55078125 2.9453125 179.2890625 C-1.70242423 161.03351925 -3.14792053 141.4718846 -3.16796875 122.69921875 C-3.17296135 121.01914482 -3.17296135 121.01914482 -3.17805481 119.30513 C-3.18307684 116.95480759 -3.18546461 114.60447816 -3.18530273 112.25415039 C-3.18748834 108.70642069 -3.20569303 105.15900304 -3.22460938 101.61132812 C-3.27369174 81.60255095 -2.8693364 61.65324708 6.8125 43.625 C8.17099147 41.16553713 8.17099147 41.16553713 7.875 38.9375 C6.77477073 36.50127805 5.38310824 34.28513536 4 32 C4 31.34 4 30.68 4 30 C3.34 30 2.68 30 2 30 C-0.57477185 21.9078599 -4.09226095 8.18452191 0 0 Z " fill="#0A5FDE" transform="translate(158,29)"/>
    <path d="M0 0 C6.20723602 4.13295866 11.65005709 7.81783417 14.109375 15.0703125 C16.53838252 12.70877741 18.83102225 10.46206823 20.796875 7.6953125 C27.20340393 0.42303642 35.43590739 -4.48207664 45.0703125 -5.2421875 C53.1730922 -5.56522191 60.11544296 -5.44104061 67.109375 -0.9296875 C67.94984375 -0.43210937 68.7903125 0.06546875 69.65625 0.578125 C78.22127513 6.02629187 83.44591367 13.28078335 86.109375 23.0703125 C86.53279962 26.37384608 86.58737078 29.61769819 86.546875 32.9453125 C86.53785156 33.83009277 86.52882813 34.71487305 86.51953125 35.62646484 C86.19276088 47.92800771 81.27566159 56.14120797 72.45703125 64.66796875 C63.42717062 71.88744167 52.22344487 72.8227634 41.109375 72.0703125 C40.38637207 71.9163501 39.66336914 71.7623877 38.91845703 71.60375977 C34.42662123 70.68567791 34.42662123 70.68567791 30.25512695 72.17553711 C28.48184823 73.82092901 26.91822 75.533368 25.359375 77.3828125 C18.82739975 84.76848715 18.82739975 84.76848715 14.109375 86.0703125 C13.46871094 85.49023438 12.82804687 84.91015625 12.16796875 84.3125 C10.37431285 82.69259616 8.57314076 81.0809866 6.765625 79.4765625 C5.20404097 78.06195108 3.66881464 76.61530753 2.203125 75.1015625 C-0.81222936 72.02570058 -0.81222936 72.02570058 -4.828125 70.9296875 C-6.30484347 71.11427731 -7.77570214 71.34998512 -9.23828125 71.625 C-18.17934556 73.12615071 -26.54421996 72.52399734 -34.890625 69.0703125 C-34.890625 68.4103125 -34.890625 67.7503125 -34.890625 67.0703125 C-35.468125 66.97234375 -36.045625 66.874375 -36.640625 66.7734375 C-39.34783388 65.92743472 -40.78648016 64.71075513 -42.890625 62.8203125 C-43.550625 62.23765625 -44.210625 61.655 -44.890625 61.0546875 C-52.89415895 53.11368116 -56.381093 44.18090538 -56.453125 33.0078125 C-56.27316056 22.3154806 -53.5774664 12.83623663 -45.890625 5.0703125 C-32.13920422 -6.62462693 -15.78849057 -8.9856156 0 0 Z " fill="#F9FAFD" transform="translate(227.890625,74.9296875)"/>
    <path d="M0 0 C0.33 0.99 0.66 1.98 1 3 C0.175 3.391875 -0.65 3.78375 -1.5 4.1875 C-4.232799 5.74858572 -4.232799 5.74858572 -4.5625 8.5 C-4.18893507 11.08070155 -4.18893507 11.08070155 -2.375 12.875 C0.82905772 14.39271155 2.6278323 13.93272724 6 13 C6.99 12.34 7.98 11.68 9 11 C9 14.63 9 18.26 9 22 C8.34 22 7.68 22 7 22 C7 22.99 7 23.98 7 25 C2.50486749 29.13066231 -0.87892534 30.32305438 -7.01171875 30.2109375 C-11.43342686 29.74183684 -13.95524472 27.20083083 -16.75 24 C-20.08328983 19.55561356 -20.73492998 15.45504363 -20 10 C-15.47322113 0.94644227 -9.4224181 -0.67036967 0 0 Z " fill="#1262DB" transform="translate(214,93)"/>
    <path d="M0 0 C0 0.66 0 1.32 0 2 C-2.5 3.625 -2.5 3.625 -5 5 C-4.67039784 10.01535052 -4.67039784 10.01535052 -2 14 C0.41482413 14.50059916 0.41482413 14.50059916 3 14 C5.31377147 12.10415891 5.31377147 12.10415891 7 10 C8.55030118 11.55030118 8.24405099 13.03676001 8.3125 15.1875 C8.24539613 19.88477059 7.16907088 22.4139461 4 26 C-0.32105266 29.90952384 -3.93658679 30.69609246 -9.59765625 30.44921875 C-14.65629645 29.50329416 -16.98517843 26.45457758 -19.875 22.3125 C-21.72406533 16.86802986 -21.98731892 11.52314835 -19.875 6.125 C-13.92812858 -0.61478761 -8.50834209 -0.49563158 0 0 Z " fill="#0E61DA" transform="translate(283,93)"/>
</svg>
